# xmcd CD database file
# Copyright (C) 1993-1998 Ti Kan
# 
# Track frame offsets:
#     150
#     11800
#     29565
#     80120
#     105160
#     117342
#     131510
#     150037
#     173210
#     192405
#     229680
# 
# Disc length: 3917 seconds
# 
# Revision: 1
# Processed by: cddbd v1.4b41PL1 Copyright (c) Steve Scherf et al.
# Submitted via: DiscPlay 4.0.4
# 
DISCID=820f4b0b
DTITLE=Stevie Ray Vaughan And Double Trouble - Live - Disc 1: First Steps In
DTITLE=Europe
DYEAR=1900
DGENRE=
TTITLE0=Intro
TTITLE1=Scuttle Buttin
TTITLE2=Voodoo Chile
TTITLE3=The Things That I Used To Do
TTITLE4=Tell Me
TTITLE5=Love Struck Baby
TTITLE6=Cold Shot
TTITLE7=Couldn't Stand The Weather
TTITLE8=Pride And Joy
TTITLE9=Texas Flood
TTITLE10=Little Wing and Third Stone From The Sun
EXTD=
EXTT0=
EXTT1=
EXTT2=
EXTT3=
EXTT4=
EXTT5=
EXTT6=
EXTT7=
EXTT8=
EXTT9=
EXTT10=
PLAYORDER=
